<?xml version="1.0" encoding="UTF-8"?>
<svg width="24px" height="24px" viewBox="0 0 24 24" version="1.1" xmlns="http://www.w3.org/2000/svg" xmlns:xlink="http://www.w3.org/1999/xlink">
    <title>down</title>
    <g id="down" stroke="none" stroke-width="1" fill="none" fill-rule="evenodd" fill-opacity="0.85">
        <path d="M11.928833,16.6538086 C12.0669352,16.652832 12.1965942,16.625651 12.3178101,16.5722656 C12.4390259,16.5188802 12.5511475,16.4385579 12.6541748,16.3312988 L18.5878906,10.2504883 C18.7667643,10.071696 18.8562012,9.85681152 18.8562012,9.60583496 C18.8562012,9.43127441 18.8151449,9.27282715 18.7330322,9.13049316 C18.6509196,8.98815918 18.5400187,8.87548828 18.4003296,8.79248047 C18.2606405,8.70947266 18.1044515,8.66796875 17.9317627,8.66796875 C17.6769613,8.66796875 17.4527995,8.76241048 17.2592773,8.95129395 L11.5527344,14.8092041 L12.3041992,14.8092041 L6.59191895,8.95129395 C6.40067546,8.76241048 6.17602539,8.66796875 5.91796875,8.66796875 C5.74438477,8.66796875 5.58797201,8.70947266 5.44873047,8.79248047 C5.30948893,8.87548828 5.19858805,8.98815918 5.11602783,9.13049316 C5.03346761,9.27282715 4.9921875,9.43127441 4.9921875,9.60583496 C4.9921875,9.73246257 5.01495361,9.85021973 5.06048584,9.95910645 C5.10601807,10.0679932 5.17264811,10.167277 5.26037598,10.256958 L11.1955566,16.3312988 C11.4148763,16.5463053 11.6593018,16.6538086 11.928833,16.6538086 Z" id="Path" fill="#000000" fill-rule="nonzero"></path>
    </g>
</svg>