<?xml version="1.0" encoding="UTF-8"?>
<svg width="104px" height="104px" viewBox="0 0 104 104" version="1.1" xmlns="http://www.w3.org/2000/svg" xmlns:xlink="http://www.w3.org/1999/xlink">
    <title>Group 3</title>
    <g id="Page-1-Copy-2" stroke="none" stroke-width="1" fill="none" fill-rule="evenodd">
        <g id="4" transform="translate(-722.000000, -150.000000)">
            <g id="Group-3" transform="translate(722.000000, 150.000000)">
                <circle id="Oval" fill="#EDEFF1" cx="52" cy="52" r="52"></circle>
                <g id="Title" transform="translate(17.013672, 69.175781)" fill="#ADADAD" fill-rule="nonzero">
                    <path d="M3.36328125,9.0234375 C4.0625,9.0234375 4.66210938,8.89257812 5.16210938,8.63085938 C5.66210938,8.36914062 6.04589844,8.00488281 6.31347656,7.53808594 C6.58105469,7.07128906 6.71484375,6.53125 6.71484375,5.91796875 L6.71484375,0.369140625 L5.66015625,0.369140625 L5.66015625,5.84765625 C5.66015625,6.49609375 5.4609375,7.02539062 5.0625,7.43554688 C4.6640625,7.84570312 4.09765625,8.05078125 3.36328125,8.05078125 C2.6328125,8.05078125 2.06542969,7.84570312 1.66113281,7.43554688 C1.25683594,7.02539062 1.0546875,6.49609375 1.0546875,5.84765625 L1.0546875,0.369140625 L0,0.369140625 L0,5.91796875 C0,6.53125 0.134765625,7.07128906 0.404296875,7.53808594 C0.673828125,8.00488281 1.05957031,8.36914062 1.56152344,8.63085938 C2.06347656,8.89257812 2.6640625,9.0234375 3.36328125,9.0234375 Z" id="Path"></path>
                    <path d="M8.23046875,10.9335938 L9.25,10.9335938 L9.25,7.828125 L9.34375,7.828125 C9.4609375,8.0546875 9.61816406,8.25 9.81542969,8.4140625 C10.0126953,8.578125 10.2392578,8.70605469 10.4951172,8.79785156 C10.7509766,8.88964844 11.0234375,8.93554688 11.3125,8.93554688 C11.8476562,8.93554688 12.3134766,8.80078125 12.7099609,8.53125 C13.1064453,8.26171875 13.4140625,7.8828125 13.6328125,7.39453125 C13.8515625,6.90625 13.9609375,6.33203125 13.9609375,5.671875 L13.9609375,5.66015625 C13.9609375,5.00390625 13.8515625,4.43164062 13.6328125,3.94335938 C13.4140625,3.45507812 13.1064453,3.07519531 12.7099609,2.80371094 C12.3134766,2.53222656 11.8476562,2.39648438 11.3125,2.39648438 C11.0195312,2.39648438 10.7480469,2.44140625 10.4980469,2.53125 C10.2480469,2.62109375 10.0253906,2.74902344 9.83007812,2.91503906 C9.63476562,3.08105469 9.47265625,3.28125 9.34375,3.515625 L9.25,3.515625 L9.25,2.5078125 L8.23046875,2.5078125 L8.23046875,10.9335938 Z M11.078125,8.03320312 C10.6953125,8.03320312 10.3652344,7.9375 10.0878906,7.74609375 C9.81054688,7.5546875 9.59765625,7.28222656 9.44921875,6.92871094 C9.30078125,6.57519531 9.2265625,6.15625 9.2265625,5.671875 L9.2265625,5.66015625 C9.2265625,5.171875 9.30078125,4.75195312 9.44921875,4.40039062 C9.59765625,4.04882812 9.81054688,3.77734375 10.0878906,3.5859375 C10.3652344,3.39453125 10.6953125,3.29882812 11.078125,3.29882812 C11.4648438,3.29882812 11.7949219,3.39355469 12.0683594,3.58300781 C12.3417969,3.77246094 12.5517578,4.04296875 12.6982422,4.39453125 C12.8447266,4.74609375 12.9179688,5.16796875 12.9179688,5.66015625 L12.9179688,5.671875 C12.9179688,6.16015625 12.8447266,6.58105469 12.6982422,6.93457031 C12.5517578,7.28808594 12.3417969,7.55957031 12.0683594,7.74902344 C11.7949219,7.93847656 11.4648438,8.03320312 11.078125,8.03320312 Z" id="Shape"></path>
                    <polygon id="Path" points="15.1132812 8.82421875 16.1328125 8.82421875 16.1328125 0 15.1132812 0"></polygon>
                    <path d="M20.1855469,8.93554688 C20.7871094,8.93554688 21.3046875,8.80371094 21.7382812,8.54003906 C22.171875,8.27636719 22.5068359,7.90039062 22.7431641,7.41210938 C22.9794922,6.92382812 23.0976562,6.34375 23.0976562,5.671875 L23.0976562,5.66015625 C23.0976562,4.984375 22.9794922,4.40234375 22.7431641,3.9140625 C22.5068359,3.42578125 22.171875,3.05078125 21.7382812,2.7890625 C21.3046875,2.52734375 20.7871094,2.39648438 20.1855469,2.39648438 C19.5878906,2.39648438 19.0712891,2.52734375 18.6357422,2.7890625 C18.2001953,3.05078125 17.8642578,3.42578125 17.6279297,3.9140625 C17.3916016,4.40234375 17.2734375,4.984375 17.2734375,5.66015625 L17.2734375,5.671875 C17.2734375,6.34375 17.3916016,6.92382812 17.6279297,7.41210938 C17.8642578,7.90039062 18.2001953,8.27636719 18.6357422,8.54003906 C19.0712891,8.80371094 19.5878906,8.93554688 20.1855469,8.93554688 Z M20.1855469,8.03320312 C19.7871094,8.03320312 19.4492188,7.93945312 19.171875,7.75195312 C18.8945312,7.56445312 18.6826172,7.29492188 18.5361328,6.94335938 C18.3896484,6.59179688 18.3164062,6.16796875 18.3164062,5.671875 L18.3164062,5.66015625 C18.3164062,5.16015625 18.3896484,4.734375 18.5361328,4.3828125 C18.6826172,4.03125 18.8945312,3.76269531 19.171875,3.57714844 C19.4492188,3.39160156 19.7871094,3.29882812 20.1855469,3.29882812 C20.5839844,3.29882812 20.921875,3.39160156 21.1992188,3.57714844 C21.4765625,3.76269531 21.6884766,4.03125 21.8349609,4.3828125 C21.9814453,4.734375 22.0546875,5.16015625 22.0546875,5.66015625 L22.0546875,5.671875 C22.0546875,6.16796875 21.9814453,6.59179688 21.8349609,6.94335938 C21.6884766,7.29492188 21.4765625,7.56445312 21.1992188,7.75195312 C20.921875,7.93945312 20.5839844,8.03320312 20.1855469,8.03320312 Z" id="Shape"></path>
                    <path d="M25.9140625,8.93554688 C26.1992188,8.93554688 26.4609375,8.89550781 26.6992188,8.81542969 C26.9375,8.73535156 27.1513672,8.6171875 27.3408203,8.4609375 C27.5302734,8.3046875 27.6914062,8.11523438 27.8242188,7.89257812 L27.9179688,7.89257812 L27.9179688,8.82421875 L28.9375,8.82421875 L28.9375,4.5 C28.9375,4.0625 28.8447266,3.68652344 28.6591797,3.37207031 C28.4736328,3.05761719 28.2021484,2.81640625 27.8447266,2.6484375 C27.4873047,2.48046875 27.0507812,2.39648438 26.5351562,2.39648438 C26.0859375,2.39648438 25.6855469,2.46582031 25.3339844,2.60449219 C24.9824219,2.74316406 24.6962891,2.93652344 24.4755859,3.18457031 C24.2548828,3.43261719 24.1171875,3.72265625 24.0625,4.0546875 L24.0566406,4.08984375 L25.0761719,4.08984375 L25.0820312,4.07226562 C25.1640625,3.82617188 25.3261719,3.63574219 25.5683594,3.50097656 C25.8105469,3.36621094 26.1210938,3.29882812 26.5,3.29882812 C26.9726562,3.29882812 27.3271484,3.40136719 27.5634766,3.60644531 C27.7998047,3.81152344 27.9179688,4.109375 27.9179688,4.5 L27.9179688,6.46875 C27.9179688,6.76953125 27.8408203,7.0390625 27.6865234,7.27734375 C27.5322266,7.515625 27.3203125,7.70410156 27.0507812,7.84277344 C26.78125,7.98144531 26.4726562,8.05078125 26.125,8.05078125 C25.7578125,8.05078125 25.453125,7.96191406 25.2109375,7.78417969 C24.96875,7.60644531 24.8476562,7.35742188 24.8476562,7.03710938 L24.8476562,7.02539062 C24.8476562,6.71289062 24.9580078,6.47070312 25.1787109,6.29882812 C25.3994141,6.12695312 25.75,6.02734375 26.2304688,6 L28.4277344,5.859375 L28.4277344,5.04492188 L26.1074219,5.18554688 C25.3730469,5.22851562 24.8056641,5.40917969 24.4052734,5.72753906 C24.0048828,6.04589844 23.8046875,6.48632812 23.8046875,7.04882812 L23.8046875,7.06054688 C23.8046875,7.44335938 23.8974609,7.77539062 24.0830078,8.05664062 C24.2685547,8.33789062 24.5205078,8.5546875 24.8388672,8.70703125 C25.1572266,8.859375 25.515625,8.93554688 25.9140625,8.93554688 Z" id="Path"></path>
                    <path d="M32.6328125,8.93554688 C33.0742188,8.93554688 33.4648438,8.83691406 33.8046875,8.63964844 C34.1445312,8.44238281 34.4101562,8.16796875 34.6015625,7.81640625 L34.6953125,7.81640625 L34.6953125,8.82421875 L35.7148438,8.82421875 L35.7148438,0 L34.6953125,0 L34.6953125,3.50390625 L34.6015625,3.50390625 C34.4296875,3.16796875 34.1669922,2.89941406 33.8134766,2.69824219 C33.4599609,2.49707031 33.0664062,2.39648438 32.6328125,2.39648438 C32.0976562,2.39648438 31.6318359,2.53125 31.2353516,2.80078125 C30.8388672,3.0703125 30.53125,3.44921875 30.3125,3.9375 C30.09375,4.42578125 29.984375,5 29.984375,5.66015625 L29.984375,5.671875 C29.984375,6.328125 30.09375,6.90136719 30.3125,7.39160156 C30.53125,7.88183594 30.8398438,8.26171875 31.2382812,8.53125 C31.6367188,8.80078125 32.1015625,8.93554688 32.6328125,8.93554688 Z M32.8671875,8.03320312 C32.484375,8.03320312 32.1552734,7.93847656 31.8798828,7.74902344 C31.6044922,7.55957031 31.3935547,7.28808594 31.2470703,6.93457031 C31.1005859,6.58105469 31.0273438,6.16015625 31.0273438,5.671875 L31.0273438,5.66015625 C31.0273438,5.16796875 31.1005859,4.74609375 31.2470703,4.39453125 C31.3935547,4.04296875 31.6044922,3.77246094 31.8798828,3.58300781 C32.1552734,3.39355469 32.484375,3.29882812 32.8671875,3.29882812 C33.25,3.29882812 33.5800781,3.39453125 33.8574219,3.5859375 C34.1347656,3.77734375 34.3476562,4.04882812 34.4960938,4.40039062 C34.6445312,4.75195312 34.71875,5.171875 34.71875,5.66015625 L34.71875,5.671875 C34.71875,6.15625 34.6445312,6.57519531 34.4960938,6.92871094 C34.3476562,7.28222656 34.1347656,7.5546875 33.8574219,7.74609375 C33.5800781,7.9375 33.25,8.03320312 32.8671875,8.03320312 Z" id="Shape"></path>
                    <polygon id="Path" points="40.1757812 8.82421875 41.2304688 8.82421875 41.2304688 0.369140625 40.1757812 0.369140625"></polygon>
                    <path d="M42.7578125,8.82421875 L43.7773438,8.82421875 L43.7773438,4.91015625 C43.7773438,4.61328125 43.8408203,4.34277344 43.9677734,4.09863281 C44.0947266,3.85449219 44.2685547,3.66015625 44.4892578,3.515625 C44.7099609,3.37109375 44.9570312,3.29882812 45.2304688,3.29882812 C45.6289062,3.29882812 45.9472656,3.41113281 46.1855469,3.63574219 C46.4238281,3.86035156 46.5429688,4.16015625 46.5429688,4.53515625 L46.5429688,8.82421875 L47.5625,8.82421875 L47.5625,4.76367188 C47.5625,4.49414062 47.6230469,4.24902344 47.7441406,4.02832031 C47.8652344,3.80761719 48.0351562,3.63085938 48.2539062,3.49804688 C48.4726562,3.36523438 48.7285156,3.29882812 49.0214844,3.29882812 C49.4667969,3.29882812 49.7978516,3.41503906 50.0146484,3.64746094 C50.2314453,3.87988281 50.3398438,4.22851562 50.3398438,4.69335938 L50.3398438,8.82421875 L51.359375,8.82421875 L51.359375,4.45898438 C51.359375,4.01757812 51.28125,3.64355469 51.125,3.33691406 C50.96875,3.03027344 50.7412109,2.796875 50.4423828,2.63671875 C50.1435547,2.4765625 49.7792969,2.39648438 49.3496094,2.39648438 C49.0605469,2.39648438 48.7900391,2.44238281 48.5380859,2.53417969 C48.2861328,2.62597656 48.0644531,2.75488281 47.8730469,2.92089844 C47.6816406,3.08691406 47.5292969,3.28125 47.4160156,3.50390625 L47.3222656,3.50390625 C47.2246094,3.28515625 47.09375,3.09277344 46.9296875,2.92675781 C46.765625,2.76074219 46.5703125,2.63085938 46.34375,2.53710938 C46.1171875,2.44335938 45.8613281,2.39648438 45.5761719,2.39648438 C45.1621094,2.39648438 44.8095703,2.49023438 44.5185547,2.67773438 C44.2275391,2.86523438 44.0117188,3.12890625 43.8710938,3.46875 L43.7773438,3.46875 L43.7773438,2.5078125 L42.7578125,2.5078125 L42.7578125,8.82421875 Z" id="Path"></path>
                    <path d="M54.4335938,8.93554688 C54.71875,8.93554688 54.9804688,8.89550781 55.21875,8.81542969 C55.4570312,8.73535156 55.6708984,8.6171875 55.8603516,8.4609375 C56.0498047,8.3046875 56.2109375,8.11523438 56.34375,7.89257812 L56.4375,7.89257812 L56.4375,8.82421875 L57.4570312,8.82421875 L57.4570312,4.5 C57.4570312,4.0625 57.3642578,3.68652344 57.1787109,3.37207031 C56.9931641,3.05761719 56.7216797,2.81640625 56.3642578,2.6484375 C56.0068359,2.48046875 55.5703125,2.39648438 55.0546875,2.39648438 C54.6054688,2.39648438 54.2050781,2.46582031 53.8535156,2.60449219 C53.5019531,2.74316406 53.2158203,2.93652344 52.9951172,3.18457031 C52.7744141,3.43261719 52.6367188,3.72265625 52.5820312,4.0546875 L52.5761719,4.08984375 L53.5957031,4.08984375 L53.6015625,4.07226562 C53.6835938,3.82617188 53.8457031,3.63574219 54.0878906,3.50097656 C54.3300781,3.36621094 54.640625,3.29882812 55.0195312,3.29882812 C55.4921875,3.29882812 55.8466797,3.40136719 56.0830078,3.60644531 C56.3193359,3.81152344 56.4375,4.109375 56.4375,4.5 L56.4375,6.46875 C56.4375,6.76953125 56.3603516,7.0390625 56.2060547,7.27734375 C56.0517578,7.515625 55.8398438,7.70410156 55.5703125,7.84277344 C55.3007812,7.98144531 54.9921875,8.05078125 54.6445312,8.05078125 C54.2773438,8.05078125 53.9726562,7.96191406 53.7304688,7.78417969 C53.4882812,7.60644531 53.3671875,7.35742188 53.3671875,7.03710938 L53.3671875,7.02539062 C53.3671875,6.71289062 53.4775391,6.47070312 53.6982422,6.29882812 C53.9189453,6.12695312 54.2695312,6.02734375 54.75,6 L56.9472656,5.859375 L56.9472656,5.04492188 L54.6269531,5.18554688 C53.8925781,5.22851562 53.3251953,5.40917969 52.9248047,5.72753906 C52.5244141,6.04589844 52.3242188,6.48632812 52.3242188,7.04882812 L52.3242188,7.06054688 C52.3242188,7.44335938 52.4169922,7.77539062 52.6025391,8.05664062 C52.7880859,8.33789062 53.0400391,8.5546875 53.3583984,8.70703125 C53.6767578,8.859375 54.0351562,8.93554688 54.4335938,8.93554688 Z" id="Path"></path>
                    <path d="M61.421875,11.0507812 C61.9960938,11.0507812 62.4941406,10.9560547 62.9160156,10.7666016 C63.3378906,10.5771484 63.6630859,10.3085938 63.8916016,9.9609375 C64.1201172,9.61328125 64.234375,9.20507812 64.234375,8.73632812 L64.234375,2.5078125 L63.2148438,2.5078125 L63.2148438,3.55078125 L63.1445312,3.55078125 C63.015625,3.3125 62.8544922,3.10742188 62.6611328,2.93554688 C62.4677734,2.76367188 62.2460938,2.63085938 61.9960938,2.53710938 C61.7460938,2.44335938 61.4726562,2.39648438 61.1757812,2.39648438 C60.625,2.39648438 60.1503906,2.52832031 59.7519531,2.79199219 C59.3535156,3.05566406 59.0458984,3.41699219 58.8291016,3.87597656 C58.6123047,4.33496094 58.5039062,4.859375 58.5039062,5.44921875 L58.5039062,5.4609375 C58.5039062,6.05078125 58.6113281,6.57421875 58.8261719,7.03125 C59.0410156,7.48828125 59.3466797,7.84667969 59.7431641,8.10644531 C60.1396484,8.36621094 60.609375,8.49609375 61.1523438,8.49609375 C61.4414062,8.49609375 61.7109375,8.45410156 61.9609375,8.37011719 C62.2109375,8.28613281 62.4355469,8.16210938 62.6347656,7.99804688 C62.8339844,7.83398438 63,7.63671875 63.1328125,7.40625 L63.2265625,7.40625 L63.2265625,8.68359375 C63.2265625,9.1484375 63.0673828,9.50878906 62.7490234,9.76464844 C62.4306641,10.0205078 61.9882812,10.1484375 61.421875,10.1484375 C60.96875,10.1484375 60.6054688,10.0712891 60.3320312,9.91699219 C60.0585938,9.76269531 59.8945312,9.56640625 59.8398438,9.328125 L59.8339844,9.32226562 L58.7792969,9.32226562 L58.7675781,9.328125 C58.8222656,9.671875 58.9619141,9.97363281 59.1865234,10.2333984 C59.4111328,10.4931641 59.7128906,10.6943359 60.0917969,10.8369141 C60.4707031,10.9794922 60.9140625,11.0507812 61.421875,11.0507812 Z M61.375,7.59375 C60.984375,7.59375 60.6533203,7.50292969 60.3818359,7.32128906 C60.1103516,7.13964844 59.9033203,6.88867188 59.7607422,6.56835938 C59.6181641,6.24804688 59.546875,5.87890625 59.546875,5.4609375 L59.546875,5.44921875 C59.546875,5.03125 59.6181641,4.66015625 59.7607422,4.3359375 C59.9033203,4.01171875 60.1103516,3.7578125 60.3818359,3.57421875 C60.6533203,3.390625 60.984375,3.29882812 61.375,3.29882812 C61.765625,3.29882812 62.1005859,3.390625 62.3798828,3.57421875 C62.6591797,3.7578125 62.8740234,4.01171875 63.0244141,4.3359375 C63.1748047,4.66015625 63.25,5.03125 63.25,5.44921875 L63.25,5.4609375 C63.25,5.87890625 63.1748047,6.24804688 63.0244141,6.56835938 C62.8740234,6.88867188 62.6591797,7.13964844 62.3798828,7.32128906 C62.1005859,7.50292969 61.765625,7.59375 61.375,7.59375 Z" id="Shape"></path>
                    <path d="M68.2109375,8.93554688 C68.5820312,8.93554688 68.9169922,8.88769531 69.2158203,8.79199219 C69.5146484,8.69628906 69.7734375,8.56738281 69.9921875,8.40527344 C70.2109375,8.24316406 70.3896484,8.06152344 70.5283203,7.86035156 C70.6669922,7.65917969 70.7636719,7.45117188 70.8183594,7.23632812 L70.8300781,7.18945312 L69.8105469,7.18945312 L69.7871094,7.2421875 C69.7324219,7.3671875 69.6367188,7.49023438 69.5,7.61132812 C69.3632812,7.73242188 69.1894531,7.83203125 68.9785156,7.91015625 C68.7675781,7.98828125 68.5195312,8.02734375 68.234375,8.02734375 C67.8515625,8.02734375 67.5195312,7.94238281 67.2382812,7.77246094 C66.9570312,7.60253906 66.7402344,7.35839844 66.5878906,7.04003906 C66.4355469,6.72167969 66.359375,6.33789062 66.359375,5.88867188 L66.359375,5.484375 C66.359375,5.01171875 66.4375,4.61328125 66.59375,4.2890625 C66.75,3.96484375 66.9619141,3.71972656 67.2294922,3.55371094 C67.4970703,3.38769531 67.8007812,3.3046875 68.140625,3.3046875 C68.4804688,3.3046875 68.78125,3.38378906 69.0429688,3.54199219 C69.3046875,3.70019531 69.5097656,3.93945312 69.6582031,4.25976562 C69.8066406,4.58007812 69.8808594,4.98828125 69.8808594,5.484375 L69.8808594,5.88867188 L70.3847656,5.14453125 L65.84375,5.14453125 L65.84375,5.95898438 L70.90625,5.95898438 L70.90625,5.56054688 C70.90625,4.93164062 70.7958984,4.37988281 70.5751953,3.90527344 C70.3544922,3.43066406 70.0380859,3.06054688 69.6259766,2.79492188 C69.2138672,2.52929688 68.7207031,2.39648438 68.1464844,2.39648438 C67.5761719,2.39648438 67.078125,2.53515625 66.6523438,2.8125 C66.2265625,3.08984375 65.8974609,3.47460938 65.6650391,3.96679688 C65.4326172,4.45898438 65.3164062,5.03125 65.3164062,5.68359375 L65.3164062,5.68945312 C65.3164062,6.34960938 65.4326172,6.92285156 65.6650391,7.40917969 C65.8974609,7.89550781 66.2294922,8.27148438 66.6611328,8.53710938 C67.0927734,8.80273438 67.609375,8.93554688 68.2109375,8.93554688 Z" id="Path"></path>
                </g>
                <g id="account_circle_FILL0_wght400_GRAD0_opsz48" transform="translate(34.000000, 26.000000)" fill="#C2C4C6" fill-rule="nonzero">
                    <path d="M6.39,28.125 C8.28,26.805 10.155,25.7925 12.015,25.0875 C13.875,24.3825 15.87,24.03 18,24.03 C20.13,24.03 22.1325,24.3825 24.0075,25.0875 C25.8825,25.7925 27.765,26.805 29.655,28.125 C30.975,26.505 31.9125,24.87 32.4675,23.22 C33.0225,21.57 33.3,19.83 33.3,18 C33.3,13.65 31.8375,10.0125 28.9125,7.0875 C25.9875,4.1625 22.35,2.7 18,2.7 C13.65,2.7 10.0125,4.1625 7.0875,7.0875 C4.1625,10.0125 2.7,13.65 2.7,18 C2.7,19.83 2.985,21.57 3.555,23.22 C4.125,24.87 5.07,26.505 6.39,28.125 Z M18,19.35 C16.26,19.35 14.7975,18.7575 13.6125,17.5725 C12.4275,16.3875 11.835,14.925 11.835,13.185 C11.835,11.445 12.4275,9.9825 13.6125,8.7975 C14.7975,7.6125 16.26,7.02 18,7.02 C19.74,7.02 21.2025,7.6125 22.3875,8.7975 C23.5725,9.9825 24.165,11.445 24.165,13.185 C24.165,14.925 23.5725,16.3875 22.3875,17.5725 C21.2025,18.7575 19.74,19.35 18,19.35 Z M18,36 C15.54,36 13.215,35.5275 11.025,34.5825 C8.835,33.6375 6.9225,32.3475 5.2875,30.7125 C3.6525,29.0775 2.3625,27.165 1.4175,24.975 C0.4725,22.785 0,20.46 0,18 C0,15.51 0.4725,13.1775 1.4175,11.0025 C2.3625,8.8275 3.6525,6.9225 5.2875,5.2875 C6.9225,3.6525 8.835,2.3625 11.025,1.4175 C13.215,0.4725 15.54,0 18,0 C20.49,0 22.8225,0.4725 24.9975,1.4175 C27.1725,2.3625 29.0775,3.6525 30.7125,5.2875 C32.3475,6.9225 33.6375,8.8275 34.5825,11.0025 C35.5275,13.1775 36,15.51 36,18 C36,20.46 35.5275,22.785 34.5825,24.975 C33.6375,27.165 32.3475,29.0775 30.7125,30.7125 C29.0775,32.3475 27.1725,33.6375 24.9975,34.5825 C22.8225,35.5275 20.49,36 18,36 Z M18,33.3 C19.65,33.3 21.2625,33.06 22.8375,32.58 C24.4125,32.1 25.965,31.26 27.495,30.06 C25.965,28.98 24.405,28.155 22.815,27.585 C21.225,27.015 19.62,26.73 18,26.73 C16.38,26.73 14.775,27.015 13.185,27.585 C11.595,28.155 10.035,28.98 8.505,30.06 C10.035,31.26 11.5875,32.1 13.1625,32.58 C14.7375,33.06 16.35,33.3 18,33.3 Z M18,16.65 C19.02,16.65 19.8525,16.3275 20.4975,15.6825 C21.1425,15.0375 21.465,14.205 21.465,13.185 C21.465,12.165 21.1425,11.3325 20.4975,10.6875 C19.8525,10.0425 19.02,9.72 18,9.72 C16.98,9.72 16.1475,10.0425 15.5025,10.6875 C14.8575,11.3325 14.535,12.165 14.535,13.185 C14.535,14.205 14.8575,15.0375 15.5025,15.6825 C16.1475,16.3275 16.98,16.65 18,16.65 Z" id="Shape"></path>
                </g>
            </g>
        </g>
    </g>
</svg>