<?xml version="1.0" encoding="UTF-8"?>
<svg width="24px" height="24px" viewBox="0 0 24 24" version="1.1" xmlns="http://www.w3.org/2000/svg" xmlns:xlink="http://www.w3.org/1999/xlink">
    <title>search</title>
    <g id="search" stroke="none" stroke-width="1" fill="none" fill-rule="evenodd">
        <path d="M20.7777778,22 L13.4722222,14.6944444 C12.9166667,15.1759259 12.2685185,15.5509259 11.5277778,15.8194444 C10.787037,16.087963 10,16.2222222 9.16666667,16.2222222 C7.16666667,16.2222222 5.47222222,15.5277778 4.08333333,14.1388889 C2.69444444,12.75 2,11.0740741 2,9.11111111 C2,7.14814815 2.69444444,5.47222222 4.08333333,4.08333333 C5.47222222,2.69444444 7.15740741,2 9.13888889,2 C11.1018519,2 12.7731481,2.69444444 14.1527778,4.08333333 C15.5324074,5.47222222 16.2222222,7.14814815 16.2222222,9.11111111 C16.2222222,9.90740741 16.0925926,10.6759259 15.8333333,11.4166667 C15.5740741,12.1574074 15.1851852,12.8518519 14.6666667,13.5 L22,20.7777778 L20.7777778,22 Z M9.13888889,14.5555556 C10.6388889,14.5555556 11.9166667,14.0231481 12.9722222,12.9583333 C14.0277778,11.8935185 14.5555556,10.6111111 14.5555556,9.11111111 C14.5555556,7.61111111 14.0277778,6.3287037 12.9722222,5.26388889 C11.9166667,4.19907407 10.6388889,3.66666667 9.13888889,3.66666667 C7.62037037,3.66666667 6.3287037,4.19907407 5.26388889,5.26388889 C4.19907407,6.3287037 3.66666667,7.61111111 3.66666667,9.11111111 C3.66666667,10.6111111 4.19907407,11.8935185 5.26388889,12.9583333 C6.3287037,14.0231481 7.62037037,14.5555556 9.13888889,14.5555556 L9.13888889,14.5555556 Z" id="Shape" fill="#7C7F86" fill-rule="nonzero"></path>
    </g>
</svg>