<?xml version="1.0" encoding="UTF-8"?>
<svg width="24px" height="24px" viewBox="0 0 24 24" version="1.1" xmlns="http://www.w3.org/2000/svg" xmlns:xlink="http://www.w3.org/1999/xlink">
    <title>back</title>
    <g id="back" stroke="none" stroke-width="1" fill="none" fill-rule="evenodd">
        <path d="M6.3217926,12.2441406 C6.3217926,12.4326884 6.35704041,12.6080602 6.42753601,12.770256 C6.49803162,12.9324519 6.60769145,13.0866191 6.7565155,13.2327576 L15.1156158,21.402359 C15.3614553,21.6495412 15.6605021,21.7731323 16.0127563,21.7731323 C16.2514343,21.7731323 16.4671733,21.7164001 16.6599731,21.6029358 C16.852773,21.4894714 17.0076955,21.336675 17.1247406,21.1445465 C17.2417857,20.952418 17.3003082,20.7376302 17.3003082,20.5001831 C17.3003082,20.1511739 17.1675415,19.8422801 16.9020081,19.5735016 L9.38113403,12.2421265 L16.9020081,4.91477966 C17.1675415,4.64857483 17.3003082,4.34035238 17.3003082,3.9901123 C17.3003082,3.7526652 17.2417857,3.5378774 17.1247406,3.3457489 C17.0076955,3.1536204 16.852773,3.000796 16.6599731,2.8872757 C16.4671733,2.77375539 16.2514343,2.71699524 16.0127563,2.71699524 C15.6605021,2.71699524 15.3614553,2.837677 15.1156158,3.07904053 L6.7565155,11.2535095 C6.60903422,11.4009908 6.50004578,11.5554937 6.42955017,11.7170181 C6.35905457,11.8785426 6.32313538,12.0542501 6.3217926,12.2441406 Z" id="Path" fill="#4079E5" fill-rule="nonzero"></path>
    </g>
</svg>