<?xml version="1.0" encoding="UTF-8"?>
<svg width="24px" height="24px" viewBox="0 0 24 24" version="1.1" xmlns="http://www.w3.org/2000/svg" xmlns:xlink="http://www.w3.org/1999/xlink">
    <title>calender</title>
    <g id="calender" stroke="none" stroke-width="1" fill="none" fill-rule="evenodd">
        <path d="M4.45,22 C4.05,22 3.70833333,21.8518519 3.425,21.5555556 C3.14166667,21.2592593 3,20.9019608 3,20.4836601 L3,5.34640523 C3,4.94553377 3.14166667,4.59259259 3.425,4.2875817 C3.70833333,3.98257081 4.05,3.83006536 4.45,3.83006536 L6.3,3.83006536 L6.3,2 L7.55,2 L7.55,3.83006536 L15.5,3.83006536 L15.5,2 L16.725,2 L16.725,3.83006536 L18.55,3.83006536 C18.95,3.83006536 19.2916667,3.98257081 19.575,4.2875817 C19.8583333,4.59259259 20,4.94553377 20,5.34640523 L20,20.4836601 C20,20.9019608 19.8583333,21.2592593 19.575,21.5555556 C19.2916667,21.8518519 18.95,22 18.55,22 L4.45,22 Z M4.45,20.8235294 L18.55,20.8235294 C18.6333333,20.8235294 18.7083333,20.788671 18.775,20.7189542 C18.8416667,20.6492375 18.875,20.5708061 18.875,20.4836601 L18.875,10.1045752 L4.125,10.1045752 L4.125,20.4836601 C4.125,20.5708061 4.15833333,20.6492375 4.225,20.7189542 C4.29166667,20.788671 4.36666667,20.8235294 4.45,20.8235294 L4.45,20.8235294 Z M4.125,8.92810458 L18.875,8.92810458 L18.875,5.34640523 C18.875,5.25925926 18.8416667,5.18518519 18.775,5.12418301 C18.7083333,5.06318083 18.6333333,5.03267974 18.55,5.03267974 L4.45,5.03267974 C4.36666667,5.03267974 4.29166667,5.06318083 4.225,5.12418301 C4.15833333,5.18518519 4.125,5.25925926 4.125,5.34640523 L4.125,8.92810458 Z M4.125,8.92810458 L4.125,5.03267974 L4.125,8.92810458 Z" id="Shape" stroke="#262626" stroke-width="0.5" fill="#000000" fill-rule="nonzero"></path>
    </g>
</svg>