<?xml version="1.0" encoding="UTF-8"?>
<svg width="24px" height="24px" viewBox="0 0 24 24" version="1.1" xmlns="http://www.w3.org/2000/svg" xmlns:xlink="http://www.w3.org/1999/xlink">
    <title>call</title>
    <g id="call" stroke="none" stroke-width="1" fill="none" fill-rule="evenodd">
        <path d="M16.4855568,20.4342957 C17.2552407,20.4342957 17.9173958,20.3177261 18.4720223,20.0845871 C19.0266488,19.8514481 19.5400765,19.4753723 20.0123055,18.9563599 C20.0452645,18.9223022 20.0776055,18.8873062 20.1093285,18.8513718 C20.1410515,18.8154373 20.1739419,18.779892 20.2079995,18.7447357 C20.464164,18.4560699 20.6565621,18.1618881 20.7851937,17.8621902 C20.9138253,17.5624924 20.9781411,17.2727966 20.9781411,16.993103 C20.9781411,16.6637878 20.8868172,16.3490295 20.7041695,16.0488281 C20.5215218,15.7486267 20.2333596,15.4632111 19.8396828,15.1925812 L17.2160103,13.3721466 C16.8041146,13.0876007 16.3742516,12.9440002 15.9264214,12.9413452 C15.4785912,12.9386902 15.0696023,13.1211548 14.6994545,13.488739 L14.0483773,14.1413269 C13.9326546,14.2570496 13.8183739,14.3199692 13.7055352,14.3300858 C13.5926964,14.3402023 13.4693062,14.2969208 13.3353646,14.2002411 C13.1771615,14.0941315 12.9818566,13.9449692 12.74945,13.7527542 C12.5170434,13.5605392 12.2767861,13.352211 12.0286782,13.1277695 C11.7805703,12.9033279 11.554023,12.6886139 11.3490365,12.4836273 C11.1398385,12.2745209 10.935035,12.0602875 10.7346261,11.8409271 C10.5342171,11.6215668 10.3484108,11.4076767 10.1772072,11.1992569 C10.0060036,10.9908371 9.86180806,10.7966309 9.74462056,10.6166382 C9.65480733,10.4837036 9.61443257,10.3605423 9.62349629,10.2471542 C9.63256001,10.1337662 9.6949532,10.0192108 9.81067586,9.90348816 L10.4561226,9.25419617 C10.8284676,8.88285828 11.0135872,8.47302246 11.0114815,8.02468872 C11.0093758,7.57635498 10.8655007,7.14678955 10.5798562,6.73599243 L8.71739888,4.07029724 C8.45171285,3.69282532 8.1664803,3.41340637 7.86170125,3.23204041 C7.5569222,3.05067444 7.23932576,2.95761108 6.90891194,2.95285034 C6.62601399,2.9480896 6.337394,3.00801086 6.04305196,3.13261414 C5.74870992,3.25721741 5.45720601,3.44755554 5.16854024,3.70362854 C5.13448262,3.73558044 5.09921193,3.76686859 5.06272817,3.79749298 C5.0262444,3.82811737 4.99257588,3.85647583 4.96172261,3.88256836 C4.61162496,4.20501709 4.32611775,4.54076385 4.10520101,4.88980865 C3.88428426,5.23885345 3.72173238,5.62449646 3.61754537,6.04673767 C3.51335835,6.46897888 3.46126485,6.94441223 3.46126485,7.47303772 C3.46126485,8.34104919 3.6267693,9.25051117 3.95777822,10.2014236 C4.28878713,11.1523361 4.78310323,12.1214905 5.44072652,13.1088867 C6.09834981,14.096283 6.91440511,15.0740204 7.88889241,16.042099 C8.86337972,17.0054169 9.84180379,17.812912 10.8241646,18.4645844 C11.8065255,19.1162567 12.7735741,19.60746 13.7253106,19.9381943 C14.677047,20.2689285 15.5971291,20.4342957 16.4855568,20.4342957 Z M16.479789,18.9566345 C15.7356484,18.9710083 14.9409478,18.8139496 14.0956872,18.4854584 C13.2504265,18.1569672 12.3952324,17.6926804 11.5301049,17.092598 C10.6649773,16.4925156 9.82363057,15.7893219 9.00606465,14.983017 C8.18840718,14.169754 7.47264791,13.3221817 6.85878682,12.4403 C6.24492574,11.5584183 5.77029347,10.6877747 5.43489003,9.82836914 C5.09948659,8.96896362 4.93659139,8.16719055 4.94620442,7.42304993 C4.95572591,6.9485321 5.04412007,6.5111618 5.21138692,6.11093903 C5.37865376,5.71071625 5.6292336,5.36654663 5.96312642,5.07843018 C5.99452901,5.04702759 6.02556539,5.01944733 6.05623555,4.99568939 C6.08690572,4.97193146 6.11849141,4.94728088 6.15099263,4.92173767 C6.27239156,4.81791687 6.39791036,4.73792267 6.52754903,4.68175507 C6.6571877,4.62558746 6.78325582,4.59750366 6.90575337,4.59750366 C7.18370748,4.59750366 7.40210652,4.71977234 7.56095052,4.96430969 L9.21123433,7.42854309 C9.315696,7.58528137 9.36458516,7.74602509 9.35790181,7.91077423 C9.35121846,8.07552338 9.27243733,8.23173523 9.12155843,8.37940979 L8.42227864,9.07223511 C8.08747029,9.39468384 7.9187386,9.73505402 7.91608357,10.0933456 C7.91342854,10.4516373 8.01962972,10.7799683 8.23468709,11.0783386 C8.47052693,11.410675 8.7869103,11.8032761 9.18383718,12.2561417 C9.58076406,12.7090073 9.96906209,13.1212463 10.3487313,13.4928589 C10.6143258,13.7563477 10.9023507,14.0305252 11.212806,14.3153915 C11.5232613,14.6002579 11.8243096,14.8669281 12.1159508,15.1154022 C12.4075921,15.3638763 12.6601632,15.5650177 12.8736641,15.7188263 C13.1719429,15.9281158 13.499038,16.0326004 13.8549492,16.03228 C14.2108605,16.0319595 14.5524666,15.8644409 14.8797677,15.5297241 L15.572593,14.8304443 C15.7202675,14.6747131 15.8764794,14.5949707 16.0412285,14.591217 C16.2059777,14.5874634 16.3667214,14.6349335 16.5234597,14.7336273 L18.9456704,16.3418884 C19.077781,16.4308777 19.1719429,16.531311 19.2281563,16.6431885 C19.2843697,16.7550659 19.3124764,16.8749084 19.3124764,17.0027161 C19.3124764,17.2556763 19.2044442,17.5077667 18.9883797,17.7589874 C18.962745,17.7915802 18.9380715,17.8231888 18.9143593,17.8538132 C18.8906472,17.8844376 18.8635933,17.9160461 18.8331978,17.9486389 C18.5450814,18.2814331 18.1994469,18.5314407 17.7962945,18.6986618 C17.393142,18.8658829 16.9543068,18.9518738 16.479789,18.9566345 Z" id="Shape" fill="#6D7278" fill-rule="nonzero"></path>
    </g>
</svg>