<?xml version="1.0" encoding="UTF-8"?>
<svg width="17px" height="20px" viewBox="0 0 17 20" version="1.1" xmlns="http://www.w3.org/2000/svg" xmlns:xlink="http://www.w3.org/1999/xlink">
    <title>close</title>
    <g id="close" stroke="none" stroke-width="1" fill="none" fill-rule="evenodd">
        <path d="M2.50195313,5.96484375 L13.0527344,16.5195312 C13.2063802,16.6731771 13.3886719,16.7753906 13.5996094,16.8261719 C13.8105469,16.8769531 14.0221354,16.875651 14.234375,16.8222656 C14.4466146,16.7688802 14.6308594,16.6627604 14.7871094,16.5039062 C14.9433594,16.3450521 15.0481771,16.1601562 15.1015625,15.9492188 C15.1549479,15.7382812 15.156901,15.5279948 15.1074219,15.3183594 C15.0579427,15.108724 14.9563802,14.9270833 14.8027344,14.7734375 L4.25195313,4.22265625 C4.10351563,4.07161458 3.92382813,3.97135417 3.71289063,3.921875 C3.50195313,3.87239583 3.2890625,3.87239583 3.07421875,3.921875 C2.859375,3.97135417 2.67382813,4.07682292 2.51757813,4.23828125 C2.36132813,4.39453125 2.2578125,4.57942708 2.20703125,4.79296875 C2.15625,5.00651042 2.15625,5.21875 2.20703125,5.4296875 C2.2578125,5.640625 2.35611979,5.81901042 2.50195313,5.96484375 Z M2.50195313,14.7773438 C2.35611979,14.9257812 2.25716146,15.1048177 2.20507813,15.3144531 C2.15299479,15.5240885 2.15234375,15.7363281 2.203125,15.9511719 C2.25390625,16.1660156 2.35872396,16.3515625 2.51757813,16.5078125 C2.67643229,16.6640625 2.86328125,16.7682292 3.078125,16.8203125 C3.29296875,16.8723958 3.50520833,16.8723958 3.71484375,16.8203125 C3.92447917,16.7682292 4.10351563,16.6692708 4.25195313,16.5234375 L14.8027344,5.97265625 C14.9563802,5.81901042 15.0585938,5.63671875 15.109375,5.42578125 C15.1601562,5.21484375 15.1582031,5.00390625 15.1035156,4.79296875 C15.0488281,4.58203125 14.9433594,4.3984375 14.7871094,4.2421875 C14.6282552,4.08333333 14.4433594,3.97721354 14.2324219,3.92382813 C14.0214844,3.87044271 13.8105469,3.86848958 13.5996094,3.91796875 C13.3886719,3.96744792 13.2063802,4.0703125 13.0527344,4.2265625 L2.50195313,14.7773438 Z" id="Shape" fill="#DBDBDB" fill-rule="nonzero"></path>
    </g>
</svg>