<?xml version="1.0" encoding="UTF-8"?>
<svg width="24px" height="24px" viewBox="0 0 24 24" version="1.1" xmlns="http://www.w3.org/2000/svg" xmlns:xlink="http://www.w3.org/1999/xlink">
    <title>department active</title>
    <g id="department-active" stroke="none" stroke-width="1" fill="none" fill-rule="evenodd">
        <path d="M11.6244965,18.7971954 C12.6128998,18.7971954 13.5309219,18.6143875 14.3785629,18.2487717 C15.2262039,17.8831558 15.9673004,17.3761139 16.6018524,16.7276459 C17.2364044,16.0791779 17.7315674,15.3244858 18.0873413,14.4635696 C18.4431152,13.6026535 18.6210022,12.6792755 18.6210022,11.6934357 C18.6210022,10.7086945 18.4431152,9.78611755 18.0873413,8.92570496 C17.7315674,8.06529236 17.2364044,7.31060028 16.6018524,6.66162872 C15.9673004,6.01265717 15.2262039,5.50508881 14.3785629,5.13892365 C13.5309219,4.77275848 12.6128998,4.5896759 11.6244965,4.5896759 C10.6370087,4.5896759 9.71946716,4.77275848 8.87187195,5.13892365 C8.02427673,5.50508881 7.28320312,6.01265717 6.64865112,6.66162872 C6.01409912,7.31060028 5.5186615,8.06529236 5.16233826,8.92570496 C4.80601501,9.78611755 4.62785339,10.7086945 4.62785339,11.6934357 C4.62785339,12.6792755 4.80601501,13.6026535 5.16233826,14.4635696 C5.5186615,15.3244858 6.01409912,16.0791779 6.64865112,16.7276459 C7.28320312,17.3761139 8.02427673,17.8831558 8.87187195,18.2487717 C9.71946716,18.6143875 10.6370087,18.7971954 11.6244965,18.7971954 Z M11.5778046,14.1892548 C11.4989777,14.1892548 11.4136505,14.1841965 11.3218231,14.1740799 C11.2299957,14.1639633 11.1204529,14.1429291 10.9931946,14.1109772 L8.0977478,18.8629761 L6.85739136,18.1678162 L9.80186462,13.337265 C9.56483459,13.0687408 9.39228058,12.8023453 9.28420258,12.5380783 C9.17612457,12.2738113 9.12208557,12.0018311 9.12208557,11.7221375 C9.12208557,11.4307251 9.17758942,11.1466141 9.28859711,10.8698044 C9.3996048,10.5929947 9.57307434,10.3261871 9.80900574,10.0693817 L6.95571899,5.19406128 L8.20953369,4.52856445 L11.001297,9.3157196 C11.1322174,9.28852844 11.2418747,9.26987457 11.3302689,9.259758 C11.418663,9.24964142 11.5011749,9.24458313 11.5778046,9.24458313 C12.0919647,9.24458313 12.5573044,9.39376831 12.9738235,9.69213867 C13.3903427,9.99050903 13.7075958,10.4249725 13.9255829,10.9955292 L19.4955139,10.9955292 L19.5058136,12.3960114 L13.9239349,12.3960114 C13.7108002,12.9793854 13.3962479,13.4241028 12.980278,13.7301636 C12.5643082,14.0362244 12.096817,14.1892548 11.5778046,14.1892548 Z M10.526413,11.7149963 C10.526413,12.0057678 10.6325455,12.2560959 10.8448105,12.4659805 C11.0570755,12.6758652 11.3056641,12.7808075 11.5905762,12.7808075 C11.8814392,12.7808075 12.1321793,12.6758652 12.3427963,12.4659805 C12.5534134,12.2560959 12.6587219,12.0057678 12.6587219,11.7149963 C12.6587219,11.4182739 12.5534134,11.1681747 12.3427963,10.9646988 C12.1321793,10.7612228 11.8814392,10.6594849 11.5905762,10.6594849 C11.3045654,10.6594849 11.0557022,10.7612228 10.8439865,10.9646988 C10.6322708,11.1681747 10.526413,11.4182739 10.526413,11.7149963 Z M11.627655,20.3892517 C11.5168762,20.3892517 11.4093246,20.3851318 11.3050003,20.3768921 C11.200676,20.3686523 11.0936737,20.3592224 10.9839935,20.3486023 L10.4902954,21.2879333 C10.4359131,21.4026489 10.3540649,21.4877472 10.244751,21.5432281 C10.135437,21.5987091 10.0141296,21.6165619 9.88082886,21.5967865 C9.75119019,21.5749054 9.64359283,21.5179596 9.5580368,21.4259491 C9.47248077,21.3339386 9.42219543,21.221283 9.40718079,21.0879822 L9.25543213,20.0519714 C9.05154419,19.996582 8.84964752,19.9320145 8.64974213,19.8582687 C8.44983673,19.784523 8.25141907,19.7045746 8.05448914,19.6184235 L7.28434753,20.3126221 C7.1894989,20.4042664 7.08167267,20.4572983 6.96086884,20.4717178 C6.840065,20.4861374 6.7180481,20.4597473 6.59481812,20.3925476 C6.47909546,20.3291016 6.3984375,20.2409821 6.35284424,20.1281891 C6.30725098,20.0153961 6.29777527,19.8939514 6.32441711,19.763855 L6.54098511,18.7333374 C6.37115479,18.6166992 6.20251465,18.4899673 6.0350647,18.3531418 C5.86761475,18.2163162 5.7061615,18.0712738 5.55070496,17.9180145 L4.60093689,18.3198395 C4.33699036,18.4275055 4.1100769,18.3677673 3.92019653,18.140625 C3.83651733,18.0467834 3.78948212,17.9399872 3.77909088,17.8202362 C3.76869965,17.7004852 3.79893494,17.583847 3.86979675,17.4703217 L4.42817688,16.5756226 C4.30897522,16.4057922 4.19721222,16.2276993 4.09288788,16.0413437 C3.98856354,15.8549881 3.88980103,15.6633453 3.79660034,15.4664154 L2.75331116,15.5175018 C2.61891174,15.5244598 2.49998474,15.4935379 2.39653015,15.424736 C2.29307556,15.3559341 2.21868896,15.2572632 2.17337036,15.1287231 C2.13766479,15.0044861 2.13713837,14.8837051 2.17179108,14.7663803 C2.20644379,14.6490555 2.27416992,14.5509338 2.37496948,14.4720154 L3.19770813,13.8217621 C3.14341736,13.6227264 3.0968399,13.4176483 3.05797577,13.2065277 C3.01911163,12.9954071 2.99327087,12.7807159 2.98045349,12.5624542 L1.98124695,12.2437134 C1.85270691,12.1983948 1.75257111,12.1286774 1.68083954,12.0345612 C1.60910797,11.9404449 1.57324219,11.8243561 1.57324219,11.6862946 C1.57324219,11.5540009 1.60910797,11.4393311 1.68083954,11.3422852 C1.75257111,11.2452393 1.85270691,11.1769867 1.98124695,11.1375275 L2.98045349,10.8187866 C2.99327087,10.6005249 3.01911163,10.3873215 3.05797577,10.1791763 C3.0968399,9.97103119 3.14341736,9.76496887 3.19770813,9.56098938 L2.37332153,8.90194702 C2.26885986,8.82788086 2.19927979,8.73337555 2.1645813,8.61843109 C2.12988281,8.50348663 2.1328125,8.38334656 2.17337036,8.25801086 C2.21868896,8.13166809 2.29307556,8.03409576 2.39653015,7.96529388 C2.49998474,7.896492 2.61836243,7.86557007 2.75166321,7.87252808 L3.79660034,7.91317749 C3.88980103,7.71734619 3.98856354,7.52744293 4.09288788,7.34346771 C4.19721222,7.15949249 4.30897522,6.97915649 4.42817688,6.80245972 L3.8714447,5.90542603 C3.80058289,5.8024292 3.77007294,5.69080353 3.77991486,5.57054901 C3.78975677,5.45029449 3.83651733,5.34324646 3.92019653,5.24940491 C4.10897827,5.02226257 4.33534241,4.96147156 4.59928894,5.06703186 L5.55235291,5.45443726 C5.70671082,5.31289673 5.86761475,5.17224884 6.0350647,5.03249359 C6.20251465,4.89273834 6.37115479,4.76403809 6.54098511,4.64639282 L6.32441711,3.62947083 C6.27003479,3.33403015 6.3591156,3.12098694 6.59165955,2.99034119 C6.71324158,2.92314148 6.83589935,2.89647675 6.95963287,2.91034698 C7.08336639,2.92421722 7.19215393,2.98045349 7.28599548,3.07905579 L8.05448914,3.75732422 C8.25141907,3.66998291 8.45011139,3.59065247 8.6505661,3.51933289 C8.85102081,3.44801331 9.05264282,3.38227844 9.25543213,3.3221283 L9.40718079,2.29476929 C9.42219543,2.1663208 9.472229,2.05609131 9.55728149,1.96408081 C9.64233398,1.87207031 9.74858093,1.81567383 9.87602234,1.79489136 C10.0114288,1.77410889 10.1340637,1.79143524 10.243927,1.84687042 C10.3537903,1.9023056 10.4359131,1.98445129 10.4902954,2.0933075 L10.9839935,3.0309906 C11.0936737,3.02037048 11.200676,3.01268005 11.3050003,3.00791931 C11.4093246,3.00315857 11.5168762,3.0007782 11.627655,3.0007782 C11.7362366,3.0007782 11.8414993,3.00315857 11.9434433,3.00791931 C12.0453873,3.01268005 12.1535797,3.02037048 12.2680206,3.0309906 L12.7577362,2.0900116 C12.8100128,1.98234558 12.8910828,1.90104675 13.000946,1.84611511 C13.1108093,1.79118347 13.231842,1.77355957 13.3640442,1.79324341 C13.4936829,1.81512451 13.6013031,1.87207031 13.6869049,1.96408081 C13.7725067,2.05609131 13.8251495,2.1663208 13.8448334,2.29476929 L13.9894409,3.32926941 C14.1922302,3.38941956 14.3950424,3.45396423 14.5978775,3.52290344 C14.8007126,3.59184265 14.9982147,3.66998291 15.1903839,3.75732422 L15.9621735,3.07754517 C16.0549164,2.97994995 16.1628799,2.92421722 16.2860641,2.91034698 C16.4092484,2.89647675 16.5310822,2.92314148 16.6515656,2.99034119 C16.7662811,3.05168152 16.8464355,3.13874817 16.8920288,3.25154114 C16.9376221,3.36433411 16.9470978,3.48921204 16.9204559,3.62617493 L16.7038879,4.64639282 C16.8737183,4.76403809 17.0420837,4.89273834 17.2089844,5.03249359 C17.375885,5.17224884 17.5360107,5.31289673 17.6893616,5.45443726 L18.6439362,5.06703186 C18.9089813,4.96147156 19.1382751,5.02226257 19.3318176,5.24940491 C19.4107361,5.34324646 19.4551392,5.45029449 19.4650269,5.57054901 C19.4749146,5.69080353 19.4443817,5.80480957 19.3734283,5.91256714 L18.8166962,6.80245972 C18.9407501,6.97915649 19.0537491,7.15949249 19.1556931,7.34346771 C19.257637,7.52744293 19.3551636,7.71734619 19.4482727,7.91317749 L20.500351,7.87252808 C20.628891,7.86557007 20.7460785,7.896492 20.8519135,7.96529388 C20.9577484,8.03409576 21.0309448,8.13276672 21.0715027,8.26130676 C21.1120605,8.38554382 21.1138,8.50485992 21.0767212,8.61925507 C21.0396423,8.73365021 20.9707031,8.82788086 20.8699036,8.90194702 L20.0471649,9.55947876 C20.1014557,9.76446533 20.1492233,9.97103119 20.1904678,10.1791763 C20.2317123,10.3873215 20.2611237,10.6005249 20.2787018,10.8187866 L21.2637634,11.1375275 C21.3922119,11.1769867 21.4934921,11.2452393 21.5676041,11.3422852 C21.641716,11.4393311 21.678772,11.5540009 21.678772,11.6862946 C21.678772,11.8195953 21.641716,11.934494 21.5676041,12.0309906 C21.4934921,12.1274872 21.3922119,12.1983948 21.2637634,12.2437134 L20.2787018,12.5553131 C20.2611237,12.7783356 20.2317123,12.9954071 20.1904678,13.2065277 C20.1492233,13.4176483 20.1014557,13.6227264 20.0471649,13.8217621 L20.8715515,14.4720154 C20.9712524,14.5509338 21.0396423,14.6505203 21.0767212,14.7707748 C21.1138,14.8910294 21.1120605,15.0108948 21.0715027,15.1303711 C21.0309448,15.2578125 20.9577484,15.3559341 20.8519135,15.424736 C20.7460785,15.4935379 20.628891,15.5244598 20.500351,15.5175018 L19.4482727,15.4664154 C19.3551636,15.6633453 19.257637,15.8549881 19.1556931,16.0413437 C19.0537491,16.2276993 18.9407501,16.4057922 18.8166962,16.5756226 L19.3734283,17.4686737 C19.4453888,17.5832977 19.4761734,17.7004852 19.4657822,17.8202362 C19.4553909,17.9399872 19.4107361,18.0467834 19.3318176,18.140625 C19.1382751,18.3677673 18.9095306,18.4285583 18.6455841,18.322998 L17.6941681,17.9180145 C17.5387115,18.0712738 17.3772583,18.2163162 17.2098083,18.3531418 C17.0423584,18.4899673 16.8737183,18.6166992 16.7038879,18.7333374 L16.9204559,19.7605591 C16.9470978,19.8928528 16.9378967,20.0153961 16.8928528,20.1281891 C16.8478088,20.2409821 16.7684784,20.3285522 16.6548615,20.3908997 C16.5332794,20.4580994 16.4108963,20.4847641 16.2877121,20.4708939 C16.1645279,20.4570236 16.056015,20.403717 15.9621735,20.3109741 L15.1903839,19.6184235 C14.9982147,19.7045746 14.8009872,19.784523 14.5987015,19.8582687 C14.3964157,19.9320145 14.1933289,19.996582 13.9894409,20.0519714 L13.8448334,21.0879822 C13.8251495,21.221283 13.7727585,21.3339386 13.6876602,21.4259491 C13.602562,21.5179596 13.4987183,21.5743561 13.3761292,21.5951385 C13.2358704,21.6160126 13.1105347,21.5987091 13.0001221,21.5432281 C12.8897095,21.4877472 12.8078613,21.4021454 12.7545776,21.2864227 L12.2680206,20.3486023 C12.1535797,20.3592224 12.0453873,20.3686523 11.9434433,20.3768921 C11.8414993,20.3851318 11.7362366,20.3892517 11.627655,20.3892517 Z" id="Shape" fill="#4079E5" fill-rule="nonzero"></path>
    </g>
</svg>