<?xml version="1.0" encoding="UTF-8"?>
<svg width="24px" height="24px" viewBox="0 0 24 24" version="1.1" xmlns="http://www.w3.org/2000/svg" xmlns:xlink="http://www.w3.org/1999/xlink">
    <title>employee active</title>
    <g id="employee-active" stroke="none" stroke-width="1" fill="none" fill-rule="evenodd">
        <path d="M3.66666667,20.25 C4.74074074,19.205 5.99537037,18.39375 7.43055556,17.81625 C8.86574074,17.23875 10.3888889,16.95 12,16.95 C13.6111111,16.95 15.1296296,17.23875 16.5555556,17.81625 C17.9814815,18.39375 19.2407407,19.205 20.3333333,20.25 L20.3333333,4.3 L3.66666667,4.3 L3.66666667,20.25 Z M12,14.365 C10.9444444,14.365 10.0509259,14.0029167 9.31944444,13.27875 C8.58796296,12.5545833 8.22222222,11.67 8.22222222,10.625 C8.22222222,9.58 8.58796296,8.69541667 9.31944444,7.97125 C10.0509259,7.24708333 10.9444444,6.885 12,6.885 C13.0555556,6.885 13.9490741,7.24708333 14.6805556,7.97125 C15.412037,8.69541667 15.7777778,9.58 15.7777778,10.625 C15.7777778,11.67 15.412037,12.5545833 14.6805556,13.27875 C13.9490741,14.0029167 13.0555556,14.365 12,14.365 Z M3.66666667,23 C3.22222222,23 2.83333333,22.835 2.5,22.505 C2.16666667,22.175 2,21.79 2,21.35 L2,4.3 C2,3.86 2.16666667,3.475 2.5,3.145 C2.83333333,2.815 3.22222222,2.65 3.66666667,2.65 L5.47222222,2.65 L5.47222222,1 L7.27777778,1 L7.27777778,2.65 L16.7222222,2.65 L16.7222222,1 L18.5277778,1 L18.5277778,2.65 L20.3333333,2.65 C20.7777778,2.65 21.1666667,2.815 21.5,3.145 C21.8333333,3.475 22,3.86 22,4.3 L22,21.35 C22,21.79 21.8333333,22.175 21.5,22.505 C21.1666667,22.835 20.7777778,23 20.3333333,23 L3.66666667,23 Z" id="Shape" fill="#4079E5" fill-rule="nonzero"></path>
    </g>
</svg>