<?xml version="1.0" encoding="UTF-8"?>
<svg width="74px" height="74px" viewBox="0 0 74 74" version="1.1" xmlns="http://www.w3.org/2000/svg" xmlns:xlink="http://www.w3.org/1999/xlink">
    <title>logo</title>
    <g id="logo" stroke="none" stroke-width="1" fill="none" fill-rule="evenodd">
        <path d="M10.3333333,63.25 C13.7703704,59.925 17.7851852,57.34375 22.3777778,55.50625 C26.9703704,53.66875 31.8444444,52.75 37,52.75 C42.1555556,52.75 47.0148148,53.66875 51.5777778,55.50625 C56.1407407,57.34375 60.1703704,59.925 63.6666667,63.25 L63.6666667,12.5 L10.3333333,12.5 L10.3333333,63.25 Z M37,44.525 C33.6222222,44.525 30.762963,43.3729167 28.4222222,41.06875 C26.0814815,38.7645833 24.9111111,35.95 24.9111111,32.625 C24.9111111,29.3 26.0814815,26.4854167 28.4222222,24.18125 C30.762963,21.8770833 33.6222222,20.725 37,20.725 C40.3777778,20.725 43.237037,21.8770833 45.5777778,24.18125 C47.9185185,26.4854167 49.0888889,29.3 49.0888889,32.625 C49.0888889,35.95 47.9185185,38.7645833 45.5777778,41.06875 C43.237037,43.3729167 40.3777778,44.525 37,44.525 Z M10.3333333,72 C8.91111111,72 7.66666667,71.475 6.6,70.425 C5.53333333,69.375 5,68.15 5,66.75 L5,12.5 C5,11.1 5.53333333,9.875 6.6,8.825 C7.66666667,7.775 8.91111111,7.25 10.3333333,7.25 L16.1111111,7.25 L16.1111111,2 L21.8888889,2 L21.8888889,7.25 L52.1111111,7.25 L52.1111111,2 L57.8888889,2 L57.8888889,7.25 L63.6666667,7.25 C65.0888889,7.25 66.3333333,7.775 67.4,8.825 C68.4666667,9.875 69,11.1 69,12.5 L69,66.75 C69,68.15 68.4666667,69.375 67.4,70.425 C66.3333333,71.475 65.0888889,72 63.6666667,72 L10.3333333,72 Z" id="Shape" fill="#4079E5" fill-rule="nonzero"></path>
    </g>
</svg>