<?xml version="1.0" encoding="UTF-8"?>
<svg width="24px" height="24px" viewBox="0 0 24 24" version="1.1" xmlns="http://www.w3.org/2000/svg" xmlns:xlink="http://www.w3.org/1999/xlink">
    <title>logout</title>
    <g id="logout" stroke="none" stroke-width="1" fill="none" fill-rule="evenodd">
        <path d="M6.05761719,19.5268555 L13.4550781,19.5268555 C14.2070312,19.5268555 14.7770996,19.331543 15.1652832,18.940918 C15.5534668,18.550293 15.7475586,17.9765625 15.7475586,17.2197266 L15.7475586,14.1362305 L14.2827148,14.1362305 L14.2827148,17.1025391 C14.2827148,17.4150391 14.2021484,17.6530762 14.0410156,17.8166504 C13.8798828,17.9802246 13.6357422,18.0620117 13.3085938,18.0620117 L6.20410156,18.0620117 C5.87695312,18.0620117 5.6340332,17.9802246 5.4753418,17.8166504 C5.31665039,17.6530762 5.23730469,17.4150391 5.23730469,17.1025391 L5.23730469,6.89990234 C5.23730469,6.58740234 5.31665039,6.34936523 5.4753418,6.18579102 C5.6340332,6.0222168 5.87695312,5.94042969 6.20410156,5.94042969 L13.3085938,5.94042969 C13.6357422,5.94042969 13.8798828,6.0222168 14.0410156,6.18579102 C14.2021484,6.34936523 14.2827148,6.58740234 14.2827148,6.89990234 L14.2827148,9.87353516 L15.7475586,9.87353516 L15.7475586,6.79003906 C15.7475586,6.02832031 15.5534668,5.45092773 15.1652832,5.05786133 C14.7770996,4.66479492 14.2070312,4.46826172 13.4550781,4.46826172 L6.05761719,4.46826172 C5.31054688,4.46826172 4.74169922,4.66479492 4.35107422,5.05786133 C3.96044922,5.45092773 3.76513672,6.02832031 3.76513672,6.79003906 L3.76513672,17.2197266 C3.76513672,17.9765625 3.96044922,18.550293 4.35107422,18.940918 C4.74169922,19.331543 5.31054688,19.5268555 6.05761719,19.5268555 Z M10.6206055,12.6787109 L17.5419922,12.6787109 L18.5673828,12.6201172 L18.0546875,13.0375977 L17.0512695,13.9750977 C16.9194336,14.0922852 16.8535156,14.2436523 16.8535156,14.4291992 C16.8535156,14.590332 16.9072266,14.7307129 17.0146484,14.8503418 C17.1220703,14.9699707 17.2612305,15.0297852 17.4321289,15.0297852 C17.5883789,15.0297852 17.7299805,14.9663086 17.8569336,14.8393555 L20.0908203,12.5175781 C20.1787109,12.4296875 20.2397461,12.3430176 20.2739258,12.2575684 C20.3081055,12.1721191 20.3251953,12.0854492 20.3251953,11.9975586 C20.3251953,11.9047852 20.3081055,11.8156738 20.2739258,11.7302246 C20.2397461,11.6447754 20.1787109,11.5605469 20.0908203,11.4775391 L17.8569336,9.15576172 C17.7299805,9.02880859 17.5883789,8.96533203 17.4321289,8.96533203 C17.2612305,8.96533203 17.1220703,9.02392578 17.0146484,9.14111328 C16.9072266,9.25830078 16.8535156,9.39990234 16.8535156,9.56591797 C16.8535156,9.74658203 16.9194336,9.89794922 17.0512695,10.0200195 L18.0546875,10.9575195 L18.5673828,11.375 L17.5419922,11.3164062 L10.6206055,11.3164062 C10.4399414,11.3164062 10.2824707,11.3823242 10.1481934,11.5141602 C10.013916,11.6459961 9.94677734,11.8071289 9.94677734,11.9975586 C9.94677734,12.1831055 10.013916,12.3430176 10.1481934,12.4772949 C10.2824707,12.6115723 10.4399414,12.6787109 10.6206055,12.6787109 Z" id="Shape" fill="#4079E5" fill-rule="nonzero"></path>
    </g>
</svg>