<?xml version="1.0" encoding="UTF-8"?>
<svg width="24px" height="24px" viewBox="0 0 24 24" version="1.1" xmlns="http://www.w3.org/2000/svg" xmlns:xlink="http://www.w3.org/1999/xlink">
    <title>mail</title>
    <g id="mail" stroke="none" stroke-width="1" fill="none" fill-rule="evenodd">
        <path d="M5.74008763,19.3907318 L19.9130002,19.3907318 C20.7620603,19.3907318 21.4217664,19.1483688 21.8921186,18.6636429 C22.3624707,18.1789169 22.5976468,17.4641876 22.5976468,16.519455 L22.5976468,6.80671692 C22.5976468,5.86784363 22.3529035,5.15604401 21.8634168,4.67131805 C21.3739301,4.1865921 20.6525632,3.94422913 19.6993161,3.94422913 L5.52640355,3.94422913 C4.67734349,3.94422913 4.01763737,4.1865921 3.5472852,4.67131805 C3.07693303,5.15604401 2.84175694,5.86784363 2.84175694,6.80671692 L2.84175694,16.519455 C2.84175694,17.4641876 3.08650029,18.1789169 3.57598698,18.6636429 C4.06547368,19.1483688 4.78684056,19.3907318 5.74008763,19.3907318 Z M5.74379551,17.7253418 C5.33656895,17.7253418 5.02570164,17.6206284 4.81119359,17.4112015 C4.59668553,17.2017746 4.4894315,16.883606 4.4894315,16.4566956 L4.4894315,6.86947632 C4.4894315,6.44842529 4.59668553,6.13291168 4.81119359,5.92293549 C5.02570164,5.71295929 5.33656895,5.60797119 5.74379551,5.60797119 L19.6957456,5.60797119 C20.0970212,5.60797119 20.4063779,5.71295929 20.6238157,5.92293549 C20.8412534,6.13291168 20.9499723,6.45085144 20.9499723,6.87675476 L20.9499723,16.4638367 C20.9499723,16.8848877 20.8412534,17.2004013 20.6238157,17.4103775 C20.4063779,17.6203537 20.0970212,17.7253418 19.6957456,17.7253418 L5.74379551,17.7253418 Z M12.7332975,14.061264 C13.0620633,14.061264 13.3831159,13.9901276 13.6964551,13.8478546 C14.0097944,13.7055817 14.3254911,13.4777985 14.6435453,13.164505 L21.7094022,6.21853638 L20.6405698,5.14105225 L13.7322294,11.9646606 C13.5453702,12.145752 13.3719693,12.2778168 13.2120267,12.3608551 C13.0520841,12.4438934 12.8925077,12.4854126 12.7332975,12.4854126 C12.5693265,12.4854126 12.4073697,12.4426804 12.2474271,12.3572159 C12.0874845,12.2717514 11.9169675,12.1408997 11.7358762,11.9646606 L4.79883397,5.11235046 L3.72286046,6.18983459 L10.8214017,13.164505 C11.1368009,13.4777985 11.4520856,13.7055817 11.7672559,13.8478546 C12.0824262,13.9901276 12.40444,14.061264 12.7332975,14.061264 Z M20.5269986,18.0508118 L21.5973417,16.9733276 L15.9881345,11.421524 L14.9177915,12.4918671 L20.5269986,18.0508118 Z M3.86362278,16.9804688 L4.9339658,18.0579529 L10.5503141,12.4918671 L9.47282994,11.421524 L3.86362278,16.9804688 Z" id="Shape" fill="#4173D3" fill-rule="nonzero"></path>
    </g>
</svg>